<svg viewBox="0 0 85 85" fill="currentColor" xmlns="http://www.w3.org/2000/svg">
<path d="M0 69.105C0 73.525 1.55833 77.265 4.675 80.325C7.79167 83.385 11.56 84.9433 15.98 85H69.105C73.4683 85 77.2083 83.4417 80.325 80.325C83.4417 77.2083 85 73.4683 85 69.105V15.98C85 11.56 83.4417 7.79167 80.325 4.675C77.2083 1.55833 73.4683 0 69.105 0H15.98C11.56 0 7.79167 1.55833 4.675 4.675C1.55833 7.79167 0 11.56 0 15.98V69.105ZM10.625 69.105V15.98C10.625 14.5067 11.135 13.26 12.155 12.24C13.175 11.22 14.45 10.6817 15.98 10.625H69.105C70.5217 10.625 71.7683 11.1633 72.845 12.24C73.9217 13.3167 74.4317 14.5633 74.375 15.98V69.105C74.375 70.5783 73.865 71.825 72.845 72.845C71.825 73.865 70.5783 74.375 69.105 74.375H15.98C14.5067 74.375 13.2317 73.865 12.155 72.845C11.0783 71.825 10.5683 70.5783 10.625 69.105ZM21.25 42.5C21.25 43.9733 21.76 45.2483 22.78 46.325C23.8 47.4017 25.075 47.9117 26.605 47.855H37.23V58.48C37.23 59.9533 37.74 61.2 38.76 62.22C39.78 63.24 41.0267 63.75 42.5 63.75C43.9733 63.75 45.22 63.24 46.24 62.22C47.26 61.2 47.7983 59.9533 47.855 58.48V47.855H58.48C59.8967 47.855 61.1433 47.345 62.22 46.325C63.2967 45.305 63.8067 44.03 63.75 42.5C63.6933 40.97 63.1833 39.7233 62.22 38.76C61.2567 37.7967 60.01 37.2867 58.48 37.23H47.855V26.605C47.855 25.1317 47.3167 23.885 46.24 22.865C45.1633 21.845 43.9167 21.3067 42.5 21.25C41.0833 21.1933 39.8367 21.7317 38.76 22.865C37.6833 23.9983 37.1733 25.245 37.23 26.605V37.23H26.605C25.1317 37.23 23.8567 37.74 22.78 38.76C21.7033 39.78 21.1933 41.0267 21.25 42.5Z" fill="#004772"/>
</svg>
