<svg viewBox="0 0 126 128" fill="currentColor" xmlns="http://www.w3.org/2000/svg">
<g filter="url(#filter0_d_13_535)">
<path d="M34.7875 4.55556C34.7875 2.03961 32.756 0 30.25 0C27.744 0 25.7125 2.03961 25.7125 4.55556V14.1481C17.0046 14.8481 11.2879 16.5662 7.088 20.7829C2.88809 24.9995 1.17679 30.7389 0.479524 39.4815H120.52C119.823 30.7389 118.112 24.9995 113.912 20.7829C109.712 16.5662 103.995 14.8481 95.2875 14.1481V4.55556C95.2875 2.03961 93.2559 0 90.75 0C88.2441 0 86.2125 2.03961 86.2125 4.55556V13.745C82.1874 13.6667 77.676 13.6667 72.6 13.6667H48.4C43.3239 13.6667 38.8124 13.6667 34.7875 13.745V4.55556Z" fill="#618CBE"/>
<path fill-rule="evenodd" clip-rule="evenodd" d="M121 62.2593V74.4074C121 97.3139 121 108.768 113.912 115.884C106.824 123 95.4158 123 72.6 123H48.4C25.584 123 14.1761 123 7.088 115.884C6.92368e-07 108.768 0 97.3139 0 74.4074V62.2593C0 57.1631 6.86959e-07 52.6337 0.0780457 48.5926H120.922C121 52.6337 121 57.1631 121 62.2593ZM87.725 98.7037C92.7368 98.7037 96.8 94.6244 96.8 89.5926C96.8 84.5608 92.7368 80.4815 87.725 80.4815C82.7132 80.4815 78.65 84.5608 78.65 89.5926C78.65 94.6244 82.7132 98.7037 87.725 98.7037Z" fill="#618CBE"/>
</g>
<defs>
<filter id="filter0_d_13_535" x="0" y="0" width="126" height="128" filterUnits="userSpaceOnUse" color-interpolation-filters="sRGB">
<feFlood flood-opacity="0" result="BackgroundImageFix"/>
<feColorMatrix in="SourceAlpha" type="matrix" values="0 0 0 0 0 0 0 0 0 0 0 0 0 0 0 0 0 0 127 0" result="hardAlpha"/>
<feOffset dx="5" dy="5"/>
<feComposite in2="hardAlpha" operator="out"/>
<feColorMatrix type="matrix" values="0 0 0 0 0 0 0 0 0 0 0 0 0 0 0 0 0 0 0.25 0"/>
<feBlend mode="normal" in2="BackgroundImageFix" result="effect1_dropShadow_13_535"/>
<feBlend mode="normal" in="SourceGraphic" in2="effect1_dropShadow_13_535" result="shape"/>
</filter>
</defs>
</svg>
