<svg viewBox="0 0 85 85" fill="currentColor" xmlns="http://www.w3.org/2000/svg">
<g clip-path="url(#clip0_2_436)">
<path d="M79.6875 74.375H69.0625V37.1875H79.6875C81.9958 37.1875 84.0398 35.6934 84.7463 33.4993C85.4516 31.2999 84.6534 28.8921 82.7754 27.5533L45.5879 0.990811C43.7405 -0.326689 41.2609 -0.326689 39.4148 0.990811L2.22727 27.5533C0.349297 28.8921 -0.450234 31.2986 0.256328 33.4993C0.960234 35.6934 3.00422 37.1875 5.3125 37.1875H15.9375V74.375H5.3125C2.37602 74.375 0 76.751 0 79.6875V85H85V79.6875C85 76.751 82.624 74.375 79.6875 74.375ZM37.1875 74.375H26.5625V37.1875H37.1875V74.375ZM58.4375 74.375H47.8125V37.1875H58.4375V74.375Z" fill="#004772"/>
</g>
<defs>
<clipPath id="clip0_2_436">
<rect width="85" height="85" fill="white"/>
</clipPath>
</defs>
</svg>
