<svg viewBox="0 0 85 85" fill="currentColor" xmlns="http://www.w3.org/2000/svg">
<path d="M9.44727 13.6973C11.107 12.0376 13.798 12.0376 15.4577 13.6973L18.4753 16.7147C20.135 18.3744 20.1349 21.0654 18.4753 22.7252C16.8155 24.3849 14.1245 24.3849 12.4648 22.7252L9.44727 19.7077C7.78755 18.048 7.78756 15.357 9.44727 13.6973ZM69.5423 13.6973C71.202 12.0376 73.893 12.0376 75.5527 13.6973C77.2124 15.357 77.2124 18.048 75.5527 19.7077L72.5353 22.7252C70.8756 24.3849 68.1846 24.3849 66.5249 22.7252C64.8651 21.0654 64.8651 18.3744 66.5249 16.7147L69.5423 13.6973ZM38.25 8.49992V4.24996C38.25 1.90275 40.1529 0 42.5001 0C44.8473 2.31329e-05 46.75 1.90276 46.75 4.24996V8.49992C46.75 10.8471 44.8473 12.75 42.5001 12.75C40.1529 12.75 38.25 10.8471 38.25 8.49992ZM59.5 76.5001C59.5 78.7544 58.6045 80.9165 57.0104 82.5105C55.4164 84.1045 53.2543 85 51 85H34C31.7457 85 29.5836 84.1045 27.9896 82.5105C26.3955 80.9165 25.5 78.7544 25.5 76.5001V70.6245C25.5073 67.6603 24.4816 64.7862 22.5993 62.4963L22.5887 62.4834L22.5783 62.4705C20.2854 59.636 18.6393 56.335 17.7551 52.7981C16.8709 49.2613 16.7698 45.5739 17.4591 41.994C18.6563 35.7704 22.1281 30.2156 27.1978 26.4124C32.2678 22.6091 38.5725 20.8301 44.8827 21.4223C51.193 22.0145 57.0565 24.9354 61.3304 29.6156C65.5374 34.2227 67.9072 40.2095 67.9975 46.4409L68.0001 46.7379V46.747C68.0042 52.5588 65.9995 58.1934 62.3256 62.6967L62.3241 62.6986L62.3225 62.7004C60.4932 64.9373 59.4958 67.7392 59.5 70.6288V76.5001Z"/>
</svg>
