<svg viewBox="0 0 85 85" fill="currentColor" xmlns="http://www.w3.org/2000/svg">
<path d="M42.5 41.1798C46.0516 41.1798 49.4578 39.7689 51.9692 37.2575C54.4806 34.7462 55.8915 31.34 55.8915 27.7883C55.8915 24.2367 54.4806 20.8305 51.9692 18.3191C49.4578 15.8077 46.0516 14.3969 42.5 14.3969C38.9484 14.3969 35.5422 15.8077 33.0308 18.3191C30.5194 20.8305 29.1085 24.2367 29.1085 27.7883C29.1085 31.34 30.5194 34.7462 33.0308 37.2575C35.5422 39.7689 38.9484 41.1798 42.5 41.1798ZM42.5 47.0634C24.6952 47.0634 13.2812 56.8889 13.2812 61.6728V70.6058H71.7188V61.6728C71.7188 55.8875 60.9131 47.0634 42.5 47.0634Z"/>
</svg>
