<svg viewBox="0 0 85 85" fill="currentColor" xmlns="http://www.w3.org/2000/svg">
<path d="M19.3804 38.441C19.3804 42.3001 21.7295 45.632 25.1101 46.5936C27.6438 53.6273 34.3362 58.3435 41.8083 58.3435C49.2803 58.3435 55.9727 53.6273 58.5061 46.5936C61.887 45.632 64.2361 42.3014 64.2361 38.441C64.2361 35.8361 63.1182 33.3523 61.2377 31.7592L61.5135 30.2782C61.5135 29.7265 61.4755 29.1878 61.432 28.6478L61.3968 28.2173L61.0294 28.4454C55.9043 31.6239 47.6012 33.0457 41.6464 33.0457C35.8607 33.0457 27.7185 31.682 22.5709 28.635L22.1958 28.537L22.1646 28.961C22.1327 29.398 22.1009 29.8336 22.1054 30.3273L22.3763 31.7632C20.4973 33.3563 19.3804 35.8387 19.3804 38.441Z"/>
<path d="M59.1266 63.2647C57.5271 62.2736 56.0165 61.3378 54.7933 60.3711L54.6377 60.2485L54.4764 60.3633C53.333 61.1791 49.296 65.3719 46.0057 68.8586L44.1887 65.327L45.1345 64.6503V61.1882H38.4822V64.6503L39.428 65.327L37.6103 68.8599C34.3191 65.3721 30.2801 61.1792 29.1379 60.3633L28.9764 60.2485L28.8208 60.3711C27.5976 61.3378 26.0867 62.2736 24.4875 63.2647C19.5022 66.3543 13.8522 69.855 13.8522 76.105C13.8522 79.7979 22.525 85 41.8072 85C61.0893 85 69.7623 79.7979 69.7623 76.105C69.7619 69.855 64.1116 66.3543 59.1266 63.2647Z"/>
<path d="M21.8593 21.8848C21.8593 24.9809 31.1758 28.9083 41.6464 28.9083C52.117 28.9083 61.4335 24.981 61.4335 21.8848V17.6172L68.6557 14.6784V23.969C67.8143 24.1005 67.1675 24.83 67.1675 25.7039C67.1675 26.4514 67.6599 27.1037 68.3698 27.3395L66.9332 36.8208H73.6907L72.2545 27.3395C72.9634 27.1035 73.4552 26.4513 73.4552 25.7039C73.4552 24.8248 72.8045 24.094 71.9587 23.9663L71.9238 12.8106C71.9831 12.7075 71.9831 12.6004 71.9831 12.5438C71.9831 12.487 71.9831 12.3814 71.9584 12.3814H71.958C71.9145 11.9754 71.6242 11.6158 71.201 11.4431L69.2875 10.6595L44.4177 0.537559C43.5561 0.185605 42.598 0 41.6464 0C40.6948 0 39.7369 0.185605 38.8756 0.537559L12.0916 11.4445C11.6163 11.639 11.3092 12.0708 11.3092 12.5438C11.3092 13.0156 11.616 13.4474 12.0921 13.6445L21.8593 17.6169V21.8848Z"/>
</svg>
