<svg viewBox="0 0 85 85" fill="currentColor" xmlns="http://www.w3.org/2000/svg">
<g clip-path="url(#clip0_2_722)">
<path d="M72.3745 47.7337C77.7717 47.7337 82.1478 43.3603 82.1478 37.9631C82.1478 32.566 77.7715 28.1896 72.3745 28.1896C66.9787 28.1896 62.6023 32.566 62.6023 37.9631C62.6025 43.3603 66.9787 47.7337 72.3745 47.7337Z"/>
<path d="M84.8883 57.151C84.4528 54.5343 82.2898 50.872 80.6525 49.2359C80.4369 49.0191 79.473 48.969 79.2127 49.1303C77.2222 50.3545 74.884 51.075 72.3745 51.075C69.8678 51.075 67.5295 50.3545 65.5388 49.1303C65.2773 48.969 64.3148 49.0191 64.0991 49.2359C63.6414 49.6936 63.142 50.3029 62.6551 51.0095C63.9725 53.4897 65.0172 56.1244 65.3942 58.3932C65.7711 60.6676 65.6487 62.8208 65.0393 64.7838C67.2038 65.5669 69.7994 65.9105 72.3743 65.9105C79.0905 65.9105 85.9635 63.5818 84.8883 57.151Z"/>
<path d="M42.2488 43.6108C50.9957 43.6108 58.0872 36.5193 58.0872 27.7726C58.0872 19.0285 50.9957 11.937 42.2488 11.937C33.5034 11.937 26.4146 19.0285 26.4146 27.7726C26.4146 36.5193 33.5033 43.6108 42.2488 43.6108Z"/>
<path d="M55.6599 46.0366C55.3162 45.6945 53.7555 45.607 53.3312 45.8696C50.1025 47.8561 46.3135 49.0191 42.2488 49.0191C38.1871 49.0191 34.3963 47.8561 31.1693 45.8696C30.7451 45.6068 29.1844 45.6945 28.8407 46.0366C26.181 48.6935 22.6756 54.6332 21.9703 58.8676C20.2315 69.2977 31.3725 73.0633 42.2488 73.0633C53.1282 73.0633 64.269 69.2977 62.5301 58.8676C61.8249 54.6332 58.3195 48.6935 55.6599 46.0366Z"/>
<path d="M12.6253 47.7337C18.0212 47.7337 22.3973 43.3603 22.3973 37.9631C22.3973 32.566 18.0212 28.1896 12.6253 28.1896C7.22799 28.1896 2.85182 32.566 2.85182 37.9631C2.85182 43.3603 7.22799 47.7337 12.6253 47.7337Z"/>
<path d="M19.1074 58.3932C19.5082 56.0103 20.6389 53.2047 22.0565 50.6104C21.6614 50.0706 21.2664 49.6005 20.9019 49.2359C20.6862 49.0191 19.7237 48.969 19.4622 49.1303C17.4715 50.3545 15.1332 51.075 12.6253 51.075C10.1172 51.075 7.77734 50.3545 5.7883 49.1303C5.52799 48.969 4.56278 49.0191 4.34712 49.2359C2.70573 50.8718 0.548352 54.5343 0.111399 57.151C-0.96239 63.5818 5.90933 65.9104 12.6253 65.9104C15.0221 65.9104 17.4424 65.6153 19.5082 64.9408C18.8572 62.9378 18.7194 60.7343 19.1074 58.3932Z"/>
</g>
<defs>
<clipPath id="clip0_2_722">
<rect width="85" height="85"/>
</clipPath>
</defs>
</svg>
